<svg width="100" height="27" viewBox="0 0 100 27" fill="none" xmlns="http://www.w3.org/2000/svg">
<path d="M22.6656 25.2083C22.6656 25.4656 22.608 25.5459 22.3404 25.5418C20.9786 25.5294 19.6148 25.5304 18.2531 25.5397C18.0431 25.5418 17.9042 25.4831 17.7724 25.3205C15.3969 22.3994 13.0172 19.4825 10.6355 16.5666C8.92791 14.471 7.21726 12.3775 5.49117 10.2655C5.40677 10.3972 5.44279 10.5289 5.44279 10.6504C5.44279 15.4828 5.44073 20.3131 5.45206 25.1434C5.45206 25.4625 5.37795 25.549 5.05167 25.5469C3.36572 25.5294 1.68492 25.5366 0 25.5366C0 17.2716 0 9.00667 0 0.739634C1.42863 0.741693 2.85932 0.748896 4.28589 0.743749C4.52674 0.743749 4.68628 0.803447 4.84684 1.00004C8.89188 5.96622 12.939 10.9211 16.9912 15.8801C17.0427 15.9439 17.0983 16.0046 17.2074 16.1312C17.2074 15.9223 17.2074 15.8049 17.2074 15.6866C17.2074 10.8336 17.2146 5.97961 17.2033 1.12664C17.2033 0.826092 17.2722 0.738604 17.5851 0.741692C19.1671 0.75816 20.7522 0.755071 22.3352 0.743749C22.6028 0.739632 22.6646 0.817858 22.6646 1.0762C22.6605 9.11988 22.6615 17.1646 22.6656 25.2083ZM36.2211 25.5438C34.6391 25.5273 33.0561 25.5315 31.4731 25.5428C31.2425 25.5428 31.1767 25.4872 31.1767 25.2494C31.1859 17.1769 31.1859 9.10238 31.1767 1.03091C31.1767 0.821972 31.2209 0.741691 31.4494 0.743749C33.0674 0.751983 34.6844 0.756102 36.2983 0.741692C36.5999 0.739633 36.5773 0.891965 36.5773 1.08958C36.5773 5.11091 36.5773 9.13121 36.5773 13.1505C36.5773 17.1605 36.5752 21.1695 36.5845 25.1784C36.5834 25.4615 36.5248 25.5479 36.2211 25.5438ZM68.3262 25.234C68.3262 25.4944 68.2459 25.5418 68.0061 25.5418C66.6423 25.5304 65.2806 25.5304 63.9168 25.5418C63.6914 25.5428 63.5535 25.4687 63.4186 25.3009C60.2341 21.3938 57.0515 17.4919 53.8639 13.5889C53.0333 12.5689 52.1996 11.5469 51.3658 10.5259C51.302 10.4528 51.2567 10.3612 51.1013 10.3118C51.1013 10.5073 51.1013 10.672 51.1013 10.8377C51.1013 15.6125 51.0972 20.3862 51.1096 25.162C51.1096 25.4646 51.0334 25.5469 50.7256 25.5448C49.1426 25.5284 47.5596 25.5325 45.9755 25.5438C45.7326 25.5448 45.6626 25.4872 45.6626 25.234C45.6668 17.179 45.6668 9.12606 45.6626 1.07106C45.6575 0.807564 45.7316 0.739632 45.9951 0.743749C47.3321 0.755071 48.6743 0.755071 50.0154 0.743749C50.2264 0.741691 50.352 0.816829 50.4848 0.976364C54.5134 5.91991 58.5481 10.8583 62.5787 15.7988C62.6456 15.876 62.7156 15.9449 62.7959 16.0365C62.8927 15.9038 62.8525 15.7679 62.8525 15.6475C62.8566 10.8285 62.8566 6.00946 62.8566 1.19045C62.8566 0.676849 62.8309 0.748897 63.3044 0.748897C64.8699 0.746838 66.4292 0.754042 67.9896 0.743749C68.249 0.741691 68.3272 0.809624 68.3272 1.07517C68.3221 9.12812 68.3221 17.1821 68.3262 25.234ZM99.999 22.1236C99.999 22.3233 99.9351 22.4437 99.7725 22.559C97.0974 24.4353 94.1331 25.5778 90.9105 26.079C90.5029 26.1428 88.5915 26.4588 86.0431 26.079C80.6147 25.2278 76.0746 21.3475 74.9743 15.7854C74.0953 11.3503 75.2264 7.41954 78.3616 4.13002C80.6311 1.7411 83.4658 0.457617 86.7244 0.0747313C88.5462 -0.10436 90.3012 0.0695842 91.1699 0.269261C94.373 0.895052 97.2199 2.27838 99.7746 4.2875C99.9279 4.41101 99.9279 4.48512 99.7911 4.6148C98.699 5.63686 97.61 6.66098 96.5303 7.6923C96.38 7.83536 96.2987 7.77155 96.1742 7.66965C94.0765 5.91991 91.6433 4.96269 88.9394 4.74552C85.1867 4.44498 81.9013 6.67642 80.7896 10.2757C79.9014 13.133 80.2071 15.8677 81.9435 18.3493C83.2362 20.2019 85.0869 21.2044 87.3122 21.4803C89.6033 21.7644 91.8152 21.4175 93.9252 20.4778C94.9339 20.027 94.9308 20.0218 94.9308 18.9205C94.9308 17.9901 94.9164 17.0586 94.9421 16.1312C94.9493 15.8091 94.8382 15.7576 94.549 15.7576C92.3257 15.7679 90.0953 15.7576 87.8721 15.7679C87.5901 15.772 87.4954 15.7205 87.4974 15.4128C87.519 14.1293 87.5139 12.8427 87.4974 11.5592C87.4974 11.304 87.5756 11.2474 87.8206 11.2474C91.772 11.2546 95.7316 11.2546 99.683 11.2474C99.9259 11.2474 100.001 11.3009 100.001 11.5551C99.9887 15.0793 99.9918 18.6014 99.999 22.1236Z" fill="#DCDCDC"/>
</svg>
