<svg width="100" height="21" viewBox="0 0 100 21" fill="none" xmlns="http://www.w3.org/2000/svg">
<path d="M47.8838 19.7772C47.7957 19.6933 47.7252 19.5938 47.6683 19.4819C47.6144 19.3711 47.5823 19.2488 47.574 19.1193V16.9922H48.5593V16.2545H47.574V15.3271H46.8383V16.2545H46.1296V16.9922H46.8383V19.1193C46.8477 19.3504 46.8964 19.5659 46.9896 19.7658C47.086 19.9668 47.2103 20.1419 47.3657 20.2922C47.5201 20.4434 47.7014 20.5605 47.9055 20.6465C48.1117 20.7336 48.3283 20.7771 48.5624 20.7781V20.0466C48.4308 20.0466 48.3055 20.0249 48.1894 19.9751C48.0744 19.9264 47.9729 19.8622 47.8838 19.7772Z" fill="#DCDCDC"/>
<path d="M51.8314 16.7418C51.677 16.5905 51.4957 16.4724 51.2916 16.3854C51.0864 16.3004 50.8688 16.2548 50.6398 16.2548C50.2731 16.2548 49.9436 16.3605 49.6452 16.5677V14.5908H48.9075V20.7785H49.6452V17.9157C49.6545 17.7893 49.6846 17.6701 49.7405 17.5572C49.7954 17.4453 49.8679 17.3489 49.956 17.264C50.0472 17.1832 50.1508 17.1137 50.2668 17.0661C50.3829 17.0174 50.5062 16.9946 50.6398 16.9946C50.7673 16.9946 50.8906 17.0164 51.0066 17.0661C51.1206 17.1169 51.2232 17.1832 51.3123 17.264C51.3993 17.3489 51.4708 17.4453 51.5288 17.5572C51.5837 17.6681 51.6179 17.7893 51.6304 17.9157V20.7785H52.3681V17.9157C52.3567 17.6867 52.3028 17.4733 52.2106 17.2712C52.1122 17.0682 51.9878 16.8941 51.8314 16.7418Z" fill="#DCDCDC"/>
<path d="M56.3944 16.9242C56.1913 16.717 55.9478 16.5564 55.6774 16.4341C55.4028 16.315 55.1127 16.2549 54.8008 16.2549C54.175 16.2549 53.6435 16.4776 53.2021 16.9211C52.7597 17.3625 52.54 17.894 52.54 18.5177C52.54 19.1436 52.7597 19.6761 53.2021 20.1185C53.6435 20.5589 54.175 20.7785 54.8008 20.7785C55.0485 20.7785 55.2847 20.7443 55.5116 20.6666C55.7385 20.591 55.9447 20.4843 56.1312 20.3475C56.3198 20.2118 56.4835 20.0502 56.6233 19.8637C56.7653 19.6761 56.872 19.4741 56.9476 19.2555H56.1436C56.0794 19.3694 56.0006 19.4751 55.9064 19.5735C55.811 19.672 55.7085 19.7559 55.5924 19.8232C55.4774 19.8947 55.3541 19.9476 55.2205 19.9869C55.0868 20.0284 54.949 20.047 54.806 20.047C54.6257 20.047 54.4558 20.0191 54.2942 19.959C54.1325 19.8978 53.9885 19.817 53.8569 19.7145C53.7274 19.6098 53.6145 19.4886 53.5233 19.3477C53.4342 19.2078 53.3679 19.0565 53.3244 18.8928H57.0388C57.0502 18.8275 57.0595 18.7654 57.0647 18.7011C57.0689 18.6379 57.073 18.5789 57.073 18.5198C57.073 18.2121 57.0119 17.9199 56.8927 17.6453C56.7653 17.3708 56.6016 17.1304 56.3944 16.9242ZM53.3182 18.151C53.3617 17.9862 53.428 17.8318 53.5212 17.6909C53.6124 17.5511 53.7253 17.4278 53.8549 17.3241C53.9864 17.2226 54.1305 17.1428 54.2921 17.0838C54.4527 17.0237 54.6216 16.9957 54.7988 16.9957C54.9759 16.9957 55.1438 17.0237 55.3054 17.0838C55.465 17.1449 55.61 17.2247 55.7416 17.3262C55.8701 17.434 55.981 17.5562 56.0773 17.694C56.1726 17.837 56.2379 17.9904 56.2804 18.1499L53.3182 18.151Z" fill="#DCDCDC"/>
<path d="M1.69611 6.57715H0V20.8216H1.69611V6.57715Z" fill="#DCDCDC"/>
<path d="M9.55601 11.5315C9.19856 11.1823 8.78308 10.9088 8.31061 10.7078C7.83918 10.5078 7.33874 10.4062 6.80825 10.4062C5.94828 10.4062 5.17638 10.656 4.49152 11.1522V10.4062H2.79333V20.8212H4.49152V14.2285H4.51949C4.54021 13.9373 4.61274 13.6627 4.73707 13.4037C4.86555 13.1447 5.03133 12.9199 5.23751 12.7313C5.44266 12.5375 5.68304 12.3883 5.95036 12.2764C6.21767 12.1635 6.50468 12.1065 6.80825 12.1065C7.10665 12.1065 7.38951 12.1604 7.65579 12.2692C7.92414 12.379 8.16038 12.5334 8.36345 12.724C8.5686 12.9188 8.73542 13.1447 8.86389 13.4037C8.99341 13.6627 9.06594 13.9373 9.08666 14.2285V20.8212H10.7848L10.7931 14.2285C10.7683 13.7031 10.645 13.2131 10.4253 12.7499C10.2057 12.2878 9.91451 11.8796 9.55601 11.5315Z" fill="#DCDCDC"/>
<path d="M17.2543 14.7693H13.4725C13.3751 14.7693 13.2984 14.7413 13.2394 14.6771C13.1803 14.617 13.1503 14.5217 13.1503 14.3932C13.1503 14.0824 13.2124 13.786 13.3316 13.5104C13.4507 13.2317 13.6144 12.9882 13.8217 12.7769C14.0268 12.5676 14.2724 12.4008 14.5501 12.2826C14.8277 12.1635 15.123 12.1024 15.439 12.1024C15.7126 12.1024 15.9706 12.15 16.2161 12.2433C16.4617 12.3386 16.6844 12.466 16.8854 12.6246C17.0864 12.7872 17.2543 12.981 17.3942 13.2037C17.533 13.4255 17.6273 13.6658 17.6812 13.9155H19.3959C19.3379 13.4255 19.1939 12.9665 18.9597 12.5406C18.7266 12.1138 18.4334 11.7418 18.0811 11.4258C17.7299 11.1067 17.3258 10.8601 16.874 10.6777C16.4233 10.4974 15.9447 10.4062 15.438 10.4062C14.8982 10.4062 14.3812 10.5119 13.8983 10.7212C13.4134 10.9326 12.9907 11.2175 12.6281 11.5802C12.2644 11.9438 11.9784 12.3666 11.7691 12.8515C11.5588 13.3374 11.4531 13.8503 11.4531 14.3932C11.4531 15.077 11.6179 15.594 11.9494 15.9443C12.2779 16.2934 12.7773 16.4696 13.4404 16.4696H17.2615C17.5713 16.4696 17.7257 16.5825 17.7257 16.8167C17.7257 17.1337 17.6656 17.4342 17.5475 17.7129C17.4273 17.9937 17.2647 18.2403 17.0564 18.4506C16.8502 18.6599 16.6078 18.8257 16.3301 18.9479C16.0514 19.0712 15.754 19.1344 15.437 19.1344C15.1582 19.1344 14.8971 19.0899 14.6485 18.9977C14.3977 18.9075 14.175 18.7801 13.9792 18.6143C13.7813 18.4506 13.6134 18.2579 13.4787 18.0372C13.343 17.8186 13.2487 17.5761 13.1979 17.3088H11.4811C11.5391 17.801 11.6811 18.26 11.908 18.6879C12.1349 19.1127 12.4209 19.4857 12.77 19.8027C13.1202 20.1198 13.5222 20.3674 13.9792 20.5487C14.434 20.7311 14.921 20.8212 15.4359 20.8212C15.9799 20.8212 16.4938 20.7145 16.9797 20.5031C17.4646 20.2949 17.8874 20.0089 18.251 19.6483C18.6106 19.2847 18.8965 18.8619 19.1079 18.377C19.3172 17.8911 19.4239 17.3772 19.4239 16.8353C19.4239 16.1504 19.2416 15.6355 18.881 15.2874C18.5194 14.9423 17.9765 14.7693 17.2543 14.7693Z" fill="#DCDCDC"/>
<path d="M20.9211 6.57715C20.3585 6.57715 20.0787 6.86208 20.0787 7.42987C20.0787 7.99248 20.3595 8.27222 20.9211 8.27222C21.4889 8.27222 21.7728 7.99144 21.7728 7.42987C21.7728 6.86208 21.4878 6.57715 20.9211 6.57715Z" fill="#DCDCDC"/>
<path d="M21.7728 10.4062H20.0778V20.8212H21.7728V10.4062Z" fill="#DCDCDC"/>
<path d="M30.8885 11.7649C29.8845 10.8583 28.7096 10.4056 27.3678 10.4056C25.9338 10.4056 24.7029 10.9164 23.6824 11.938C22.668 12.9523 22.1593 14.1791 22.1593 15.6131C22.1593 17.0543 22.668 18.2831 23.6824 19.2985C24.6988 20.3128 25.9266 20.8216 27.3678 20.8216C28.7106 20.8216 29.8856 20.3678 30.8885 19.4622V20.8216H32.5836V6.57715H30.8885V11.7649ZM30.6046 16.9817C30.416 17.4066 30.1643 17.7816 29.8431 18.1018C29.5229 18.4219 29.151 18.6737 28.7241 18.8581C28.2962 19.0415 27.8455 19.1348 27.3668 19.1348C26.8819 19.1348 26.4281 19.0415 26.0053 18.8581C25.5805 18.6716 25.2096 18.4199 24.8905 18.1018C24.5683 17.7816 24.3165 17.4066 24.1331 16.9817C23.9507 16.5559 23.8575 16.099 23.8575 15.6151C23.8575 15.1364 23.9507 14.6868 24.1331 14.2568C24.3175 13.8299 24.5693 13.4579 24.8905 13.1357C25.2106 12.8166 25.5805 12.5659 26.0053 12.3804C26.4281 12.197 26.8829 12.1038 27.3668 12.1038C27.8455 12.1038 28.2951 12.197 28.7241 12.3804C29.151 12.5669 29.5229 12.8176 29.8431 13.1357C30.1653 13.4579 30.4171 13.8299 30.6046 14.2568C30.7922 14.6847 30.8875 15.1364 30.8875 15.6151C30.8885 16.099 30.7922 16.5559 30.6046 16.9817Z" fill="#DCDCDC"/>
<path d="M42.2121 11.9428C41.7386 11.4672 41.1853 11.0942 40.5533 10.8165C39.9233 10.543 39.2519 10.4062 38.5432 10.4062C37.1062 10.4062 35.8794 10.9171 34.8578 11.9387C33.8424 12.953 33.3347 14.1798 33.3347 15.6137C33.3347 17.055 33.8414 18.2838 34.8578 19.2992C35.8721 20.3135 37.0989 20.8222 38.5432 20.8222C39.11 20.8222 39.656 20.7342 40.1761 20.5591C40.6952 20.385 41.1729 20.1426 41.6018 19.8276C42.0308 19.5157 42.409 19.1417 42.7301 18.7138C43.0544 18.2838 43.3042 17.8165 43.4793 17.3109H41.6267C41.4765 17.5782 41.2941 17.8206 41.0786 18.0444C40.862 18.2672 40.6217 18.4578 40.3564 18.6205C40.0901 18.7821 39.8062 18.9096 39.4975 18.9997C39.1918 19.0919 38.8717 19.1365 38.5443 19.1365C38.1298 19.1365 37.7371 19.0681 37.3662 18.9324C36.9922 18.7956 36.6554 18.6081 36.356 18.3698C36.0566 18.1315 35.7996 17.8486 35.5903 17.5264C35.381 17.2042 35.2256 16.8519 35.1293 16.4716H43.6823C43.7082 16.3204 43.7279 16.1753 43.7414 16.0313C43.7538 15.8893 43.7611 15.7505 43.7611 15.6168C43.7611 14.904 43.6202 14.2357 43.3456 13.6047C43.0658 12.9717 42.6877 12.4184 42.2121 11.9428ZM35.1282 14.7693C35.2256 14.388 35.3821 14.0347 35.5934 13.7104C35.8069 13.383 36.0638 13.1022 36.3653 12.867C36.6658 12.6297 37.0025 12.4443 37.3745 12.3085C37.7444 12.1728 38.135 12.1065 38.5432 12.1065C38.9515 12.1065 39.3379 12.1728 39.7057 12.3085C40.0746 12.4443 40.4093 12.6328 40.7097 12.8712C41.0112 13.1105 41.2682 13.3934 41.4858 13.7187C41.7013 14.0461 41.8588 14.3963 41.9551 14.7714L35.1282 14.7693Z" fill="#DCDCDC"/>
<path d="M66.8808 11.513C66.5213 11.167 66.1068 10.8914 65.6344 10.6924C65.164 10.4956 64.6625 10.392 64.132 10.392C63.2917 10.392 62.5302 10.6323 61.8453 11.111V6.5625H60.1461V20.8048H61.8453V14.2131C61.865 13.923 61.9386 13.6474 62.0619 13.3884C62.1872 13.1304 62.353 12.9056 62.5592 12.7159C62.7675 12.5232 63.0047 12.374 63.2731 12.2611C63.5404 12.1492 63.8274 12.0912 64.1289 12.0912C64.4263 12.0912 64.7102 12.1492 64.9744 12.2611C65.2365 12.374 65.4717 12.5253 65.6779 12.7159C65.8799 12.9076 66.0447 13.1304 66.1763 13.3884C66.3037 13.6474 66.3825 13.923 66.4084 14.2131V20.8048H68.1055V14.2131C68.0806 13.6889 67.9573 13.1967 67.7418 12.7284C67.5253 12.2652 67.2393 11.858 66.8808 11.513Z" fill="#DCDCDC"/>
<path d="M77.2875 11.9322C76.8129 11.4556 76.2617 11.0805 75.6276 10.8059C74.9987 10.5324 74.3263 10.3936 73.6176 10.3936C72.1805 10.3936 70.9537 10.9054 69.9332 11.926C68.9178 12.9413 68.4091 14.1639 68.4091 15.6021C68.4091 17.0443 68.9157 18.2701 69.9332 19.2875C70.9475 20.3019 72.1732 20.8085 73.6176 20.8085C74.3294 20.8085 75.0008 20.6728 75.6349 20.3961C76.2669 20.1226 76.8223 19.7506 77.2968 19.2782C77.7724 18.8088 78.1454 18.2555 78.422 17.6246C78.6955 16.9967 78.8333 16.3191 78.8333 15.6041C78.8333 14.8913 78.6924 14.2209 78.4168 13.5931C78.1391 12.959 77.763 12.4067 77.2875 11.9322ZM76.8554 16.9697C76.6679 17.3945 76.4161 17.7686 76.0959 18.0887C75.7748 18.4079 75.4038 18.6607 74.9769 18.8441C74.5501 19.0295 74.0973 19.1207 73.6176 19.1207C73.1327 19.1207 72.6778 19.0295 72.2551 18.8441C71.8324 18.6596 71.4614 18.4068 71.1402 18.0887C70.8222 17.7665 70.5693 17.3945 70.3849 16.9697C70.1995 16.5418 70.1093 16.0849 70.1093 15.6021C70.1093 15.1223 70.1995 14.6716 70.3849 14.2437C70.5693 13.8169 70.8222 13.4449 71.1402 13.1227C71.4635 12.8025 71.8324 12.5507 72.2551 12.3673C72.6778 12.1829 73.1347 12.0897 73.6176 12.0897C74.0973 12.0897 74.547 12.1819 74.9769 12.3673C75.4038 12.5518 75.7758 12.8035 76.0959 13.1227C76.4182 13.4449 76.671 13.8169 76.8554 14.2437C77.045 14.6696 77.1362 15.1223 77.1362 15.6021C77.1352 16.0849 77.044 16.5418 76.8554 16.9697Z" fill="#DCDCDC"/>
<path d="M83.0483 18.5007C82.8452 18.3059 82.6794 18.0801 82.553 17.8221C82.4276 17.563 82.3541 17.2833 82.3344 16.988V12.0893H84.6014V10.3911H82.3344V8.25879H80.6352V10.3921H79.0074V12.0903H80.6352V16.989C80.6559 17.5185 80.775 18.0127 80.9906 18.4759C81.2081 18.94 81.4951 19.3431 81.8536 19.6891C82.2132 20.0362 82.6286 20.3056 83.1001 20.5035C83.5715 20.7004 84.073 20.8019 84.6118 20.8081V19.1213C84.3082 19.1213 84.0212 19.0664 83.7539 18.9576C83.4855 18.8457 83.2524 18.6945 83.0483 18.5007Z" fill="#DCDCDC"/>
<path d="M93.8549 11.9322C93.3782 11.4556 92.826 11.0805 92.195 10.8059C91.5661 10.5324 90.8937 10.3936 90.1829 10.3936C88.7489 10.3936 87.5211 10.9054 86.4985 11.926C85.4841 12.9413 84.9764 14.1639 84.9764 15.6021C84.9764 17.0443 85.4821 18.2701 86.4985 19.2875C87.5128 20.3019 88.7406 20.8085 90.1829 20.8085C90.7527 20.8085 91.2946 20.7225 91.8189 20.5474C92.339 20.3723 92.8125 20.1288 93.2415 19.8159C93.6725 19.5009 94.0486 19.13 94.3729 18.7011C94.6972 18.2721 94.9448 17.8038 95.1199 17.2982H93.2684C93.1202 17.5645 92.9369 17.8069 92.7224 18.0328C92.5038 18.2535 92.2655 18.4452 91.9992 18.6078C91.7329 18.7705 91.448 18.8948 91.1413 18.985C90.8356 19.0782 90.5155 19.1217 90.185 19.1217C89.7747 19.1217 89.3809 19.0554 89.0069 18.9187C88.637 18.7829 88.2982 18.5954 87.9988 18.356C87.6973 18.1177 87.4424 17.8359 87.2341 17.5137C87.0217 17.1894 86.8673 16.8402 86.7731 16.4558H95.3261C95.3489 16.3077 95.3696 16.1636 95.3821 16.0207C95.3966 15.8787 95.4028 15.7399 95.4028 15.6052C95.4028 14.8923 95.265 14.222 94.9873 13.5941C94.7045 12.959 94.3294 12.4067 93.8549 11.9322ZM86.7699 14.7576C86.8673 14.3753 87.0228 14.022 87.2352 13.6967C87.4496 13.3703 87.7045 13.0885 88.006 12.8553C88.3075 12.6181 88.6412 12.4326 89.0162 12.2969C89.3861 12.1591 89.7767 12.0928 90.1829 12.0928C90.5911 12.0928 90.9797 12.1591 91.3485 12.2969C91.7153 12.4326 92.05 12.6201 92.3515 12.8595C92.6519 13.0978 92.9099 13.3817 93.1254 13.706C93.344 14.0303 93.5005 14.3826 93.5958 14.7597L86.7699 14.7576Z" fill="#DCDCDC"/>
<path d="M99.1389 18.9553C98.8675 18.8465 98.6292 18.6942 98.4261 18.5015C98.223 18.3067 98.0572 18.0809 97.9319 17.8229C97.8044 17.5638 97.734 17.2841 97.7122 16.9888V6.56348H96.014V16.9888C96.0358 17.5183 96.1518 18.0125 96.3684 18.4756C96.586 18.9398 96.873 19.3428 97.2315 19.6889C97.59 20.036 98.0085 20.3054 98.4821 20.5033C98.9576 20.7001 99.4632 20.8017 99.9989 20.8079V19.1211C99.6995 19.119 99.4094 19.0652 99.1389 18.9553Z" fill="#DCDCDC"/>
<path d="M47.119 4.83867C47.119 4.83867 47.3252 4.83867 47.6796 4.83867C48.0443 -0.332543 43.2554 0.046673 43.2875 0.046673C37.1869 -0.449623 37.218 3.17572 37.218 3.17572L34.7375 10.3166L37.4024 6.72232C37.619 9.07739 40.1896 9.34989 40.1896 9.34989L43.0088 9.34056C43.0585 9.34264 43.1041 9.34057 43.1507 9.34264L43.216 6.82075C43.216 6.82075 43.4419 4.73403 47.119 4.83867Z" fill="#DCDCDC"/>
<path d="M57.103 5.26574C56.1052 4.89896 49.6554 4.84819 47.6775 4.83887C47.6713 4.93315 47.664 5.02951 47.6537 5.12794C47.6537 5.12794 47.6019 9.47752 43.1487 9.34179L43.1104 10.6815C43.2855 13.0417 46.8321 12.8231 46.8321 12.8231C49.4824 12.9309 56.0482 12.4998 56.0482 12.4998L58.682 14.1887L57.6128 11.7425C58.4561 11.4347 58.8126 10.4846 58.853 10.41C59.2861 9.52726 59.2716 7.06443 59.2716 7.06443C59.3648 5.76204 57.103 5.26574 57.103 5.26574Z" fill="#DCDCDC"/>
</svg>
