<svg width="100" height="31" viewBox="0 0 100 31" fill="none" xmlns="http://www.w3.org/2000/svg">
<path d="M17.3169 7.25622C16.455 7.24099 15.5932 7.25215 14.7313 7.25215C12.9762 7.25317 12.6929 7.49173 12.426 9.20934C12.4046 9.3474 12.3874 9.48444 12.2544 9.54332C12.0747 9.62351 11.9692 9.4885 11.8737 9.36567C11.7925 9.26009 11.7225 9.14843 11.6474 9.03879C9.33894 5.60967 3.72727 6.11622 1.75283 9.20223C-0.581983 12.8496 -0.450016 16.6675 1.35591 20.4652C3.49988 24.9744 10.2546 24.5998 11.7814 20.9819C11.8027 20.9342 11.9296 20.6926 12.0006 20.4743C11.9651 21.6224 12.0321 23.0203 11.9214 24.0892C11.7732 25.5246 11.021 26.5418 9.69423 27.0331C8.31568 27.5447 7.00717 27.3589 5.8956 26.2931C5.54538 25.957 5.18906 25.618 4.7891 25.349C4.03079 24.8414 2.71619 24.948 2.12437 25.5195C1.54777 26.0748 1.47062 27.0128 1.97007 27.9163C2.49489 28.8664 3.30396 29.5202 4.32315 29.8399C6.93611 30.6571 9.59475 30.6947 12.2138 29.9455C14.1578 29.3892 15.5698 28.1132 16.2977 26.1865C16.7251 25.0566 16.7839 23.8608 16.7839 22.6639C16.787 18.8399 16.787 15.0179 16.7819 11.1939C16.7819 10.7087 16.8306 10.3422 17.4631 10.2945C18.4386 10.2204 18.9807 9.59407 18.9442 8.70177C18.9086 7.79525 18.3341 7.27347 17.3169 7.25622ZM11.3002 18.9973C10.5865 20.0794 9.58358 20.6276 8.27609 20.522C7.0224 20.4205 6.23973 19.6632 5.73013 18.579C5.30682 17.6776 5.12003 16.5589 5.11902 15.09C5.11699 13.8191 5.28042 12.5836 5.93316 11.4599C7.1503 9.36668 9.80387 9.26517 11.1773 11.2558C12.5772 13.2882 12.6412 16.965 11.3002 18.9973Z" fill="#DCDCDC"/>
<path d="M67.9113 20.8411C66.9642 20.6503 66.9621 20.6503 66.9601 19.6575C66.952 16.8943 66.9896 14.1331 66.9297 11.3729C66.8789 9.09701 65.6597 7.50731 63.6569 6.89417C61.387 6.1988 59.04 6.86777 57.7295 8.56711C57.5183 8.8412 57.0179 9.55179 57.0179 9.55179C57.0179 9.55179 57.0077 8.95388 57.0067 8.74273L57.0199 1.78296C57.0087 0.83787 56.6017 0.24706 55.8495 0.149607C54.2699 -0.0564659 52.6741 -0.0371799 51.0905 0.131333C50.383 0.207468 49.9911 0.810459 49.9972 1.56876C50.0013 2.3291 50.4611 2.98488 51.1585 3.03462C52.1838 3.10771 52.1645 3.36048 52.1645 4.26395L52.1594 20.0402C52.1584 20.5264 51.994 20.8117 51.4275 20.836C50.5301 20.8736 50.0023 21.4624 49.9952 22.3252C49.9891 23.1648 50.4753 23.8144 51.3352 23.8398L57.565 23.851C58.3396 23.8337 58.77 23.2429 58.8035 22.3963C58.836 21.5913 58.4025 20.9345 57.6737 20.8472C57.1082 20.7812 56.9752 20.4757 56.9763 20.0046L56.9834 13.9727C56.9955 13.1789 57.1671 12.3952 57.4574 11.6491C57.967 10.3395 59.0035 9.69188 60.2897 9.86445C61.2835 9.99744 61.9149 10.7872 62.0458 12.1932C62.2956 14.8376 62.1189 17.4912 62.1585 20.1407C62.1646 20.5356 62.0103 20.7812 61.5474 20.8391C60.7698 20.9396 60.3211 21.5781 60.3628 22.4125C60.4044 23.2551 60.8419 23.8378 61.6154 23.853L67.7783 23.8459C68.5833 23.8256 69.0422 23.2429 69.0716 22.442C69.1081 21.5852 68.6798 20.9964 67.9113 20.8411Z" fill="#DCDCDC"/>
<path d="M35.6249 20.8472C34.8798 20.8329 34.7438 20.4482 34.7529 19.832C34.7702 18.6169 34.758 17.4008 34.758 16.1846C34.7539 16.1846 34.7488 16.1846 34.7448 16.1846C34.7448 14.9695 34.7793 13.7524 34.7377 12.5383C34.6351 9.57001 33.3287 7.74784 30.7725 7.03116C28.9555 6.52156 27.0998 6.51039 25.2553 6.85655C23.7265 7.14282 22.4515 7.91026 21.5155 9.17309C21.1024 9.73142 20.8019 10.3476 20.9653 11.0795C21.1186 11.7678 21.6637 12.2347 22.4109 12.3454C23.5945 12.52 24.2564 12.2784 24.697 11.4612C24.9822 10.9303 25.2654 10.4197 25.8359 10.1294C28.1251 8.97007 30.334 10.3009 30.3452 12.8438C30.3472 13.3971 30.1493 13.6559 29.5605 13.6214C28.6793 13.5686 27.7931 13.5229 26.912 13.5514C25.4065 13.6001 23.8879 13.7646 22.5479 14.4741C20.5136 15.5512 19.5776 17.9439 20.0842 20.3436C20.4496 22.0744 21.3907 23.3708 23.09 23.9088C25.6583 24.7179 28.4773 24.5788 30.2569 21.9993C30.3756 21.8268 30.4944 21.5161 30.7147 21.5811C30.9827 21.6603 30.8934 21.9912 30.9076 22.2257C30.9695 23.1332 31.2182 23.6073 31.9176 23.7423C33.2231 23.992 34.557 23.9799 35.8645 23.7636C36.5954 23.6428 36.9608 22.985 36.8999 22.2125C36.84 21.4522 36.3517 20.8614 35.6249 20.8472ZM30.2193 17.7957C29.9219 19.2991 29.328 20.5934 27.6865 21.0319C25.6055 21.5872 24.1224 20.1183 24.6665 18.0637C24.8645 17.3165 25.3741 16.8567 26.0694 16.5927C26.9699 16.2537 27.9139 16.1684 28.8682 16.1532C30.4782 16.1349 30.536 16.1988 30.2193 17.7957Z" fill="#DCDCDC"/>
<path d="M81.0328 7.09097C79.8634 6.70826 78.6574 6.57426 77.4382 6.67273C74.8436 6.88185 72.7412 7.8178 71.4226 10.6399C69.9821 13.7208 69.8988 16.883 71.1708 20.0116C71.8824 21.7607 73.1798 23.0357 74.9451 23.7098C77.1662 24.5564 79.4371 24.5635 81.6704 23.7351C82.7637 23.3291 83.7087 22.6672 84.331 21.647C84.7361 20.9831 84.9787 20.2431 84.5229 19.5284C84.0843 18.8371 83.2864 18.7305 82.5545 18.898C82.0256 19.0188 81.6998 19.3142 81.4105 19.7142C81.0075 20.2735 80.5913 20.8247 79.8644 20.9831C76.8129 21.647 75.0415 19.9944 74.6365 17.3317C74.5685 16.8809 74.7187 16.7084 75.2029 16.7185C76.683 16.7469 78.1631 16.7287 79.6441 16.7287V16.7266C81.1455 16.7266 82.65 16.7439 84.1513 16.7205C85.1949 16.7043 85.738 16.146 85.7553 15.1095C85.7796 13.5432 85.4649 12.0418 84.8508 10.6013C84.1057 8.85324 82.8398 7.67975 81.0328 7.09097ZM80.9537 13.9391C79.9852 13.9279 79.0158 13.936 78.0453 13.936C77.0962 13.936 76.15 13.933 75.2009 13.936C74.8862 13.937 74.6456 13.9005 74.6263 13.4884C74.5624 12.188 75.7206 10.4653 76.9814 10.0247C78.4382 9.51613 80.0268 10.0247 80.8928 11.2977C81.31 11.9108 81.5181 12.5971 81.5394 13.3462C81.5506 13.7767 81.3739 13.9452 80.9537 13.9391Z" fill="#DCDCDC"/>
<path d="M48.7972 18.681C48.6348 18.1461 48.311 17.7948 47.7252 17.7624C47.1547 17.7319 46.837 18.071 46.6228 18.546C46.4116 19.0211 46.4299 19.5409 46.3233 20.0373C46.1579 20.8047 45.7752 21.161 45.1448 21.1143C44.5326 21.0686 44.1154 20.6149 44.1103 19.882L44.1042 10.9995C44.1022 10.4859 44.3266 10.293 44.8209 10.3031L46.7416 10.2981C47.6339 10.2219 48.109 9.6169 48.0897 8.70836C48.0734 7.86782 47.5537 7.31762 46.6837 7.26585C46.1771 7.23539 45.6676 7.2557 45.159 7.25367C44.1327 7.25062 44.1002 7.20798 44.0819 6.15326C44.0647 5.16046 44.1428 4.16664 44.0027 3.17485C43.9307 2.66018 43.6637 2.4673 43.1876 2.58709C42.1846 2.83884 41.1979 3.14846 40.2457 3.55553C39.6143 3.82454 39.2955 4.31993 39.2823 5.00616C39.2732 5.49241 39.2671 5.97866 39.2712 6.46389C39.2752 7.00902 39.0377 7.24961 38.4702 7.26382C37.4297 7.28818 36.9354 7.80082 36.9374 8.75911C36.9394 9.72045 37.4358 10.2696 38.4479 10.292C39.1047 10.3072 39.2834 10.6046 39.2763 11.1944L39.323 19.8759C39.4783 22.436 40.7279 23.8461 43.0363 24.247C43.6698 24.3567 44.3164 24.3364 44.9539 24.2765C47.7141 24.0217 49.588 21.2818 48.7972 18.681Z" fill="#DCDCDC"/>
<path d="M99.6931 7.50154C99.4495 6.929 98.9429 6.6407 98.3095 6.65796C96.5147 6.70567 95.2224 7.58985 94.3403 9.10748C94.0895 9.53891 93.9221 10.0191 93.716 10.4779C93.6876 10.4769 93.6581 10.4749 93.6297 10.4739C93.6297 9.9673 93.6398 9.45973 93.6277 8.95318C93.6003 7.81318 93.0988 7.29039 91.9618 7.26298C90.9244 7.2376 89.8838 7.24166 88.8464 7.26095C87.8901 7.27922 87.3653 7.77461 87.3227 8.64661C87.2749 9.6252 87.7358 10.2241 88.7103 10.2901C89.2352 10.3267 89.4169 10.5662 89.4179 11.0312C89.4199 14.0583 89.4301 17.0864 89.425 20.1136C89.425 20.5836 89.227 20.8191 88.7012 20.8384C87.818 20.8709 87.3348 21.418 87.3196 22.286C87.3013 23.2026 87.7703 23.8351 88.6565 23.8513L95.4843 23.8483C96.0467 23.8412 96.4741 23.5143 96.6822 22.9509C97.0913 21.8444 96.4528 20.877 95.2691 20.8232C94.2784 20.7795 94.2398 20.7399 94.2357 19.7512C94.2327 18.8223 94.2357 17.8945 94.2347 16.9667C94.2337 15.9952 94.2256 15.0206 94.4865 14.0705C95.0001 12.2036 96.5076 11.089 98.4374 11.1784C98.9866 11.2037 99.3865 10.9987 99.6231 10.5124C100.102 9.5247 100.121 8.50145 99.6931 7.50154Z" fill="#DCDCDC"/>
</svg>
