<svg width="50" height="50" viewBox="0 0 50 50" xmlns="http://www.w3.org/2000/svg">
<path d="M22.9004 0.0585175C18.6524 0.497971 14.9219 1.81633 11.5137 4.09172C5.33206 8.21281 1.37698 14.4823 0.371122 21.7284C0.214871 22.9003 0.205106 26.8554 0.371122 27.9784C1.18167 33.7011 3.40823 38.3495 7.25589 42.3534C11.1133 46.3573 16.084 48.8866 21.8457 49.7753C23.5352 50.039 27.2559 50.0097 29.1895 49.7167C34.6875 48.8964 39.4141 46.6112 43.0274 43.0175C47.1192 38.955 49.5508 33.6327 49.7754 28.2714C50.0098 22.6952 47.627 18.164 43.2911 15.9374C42.3145 15.4394 40.9082 14.9218 40.1465 14.7948C39.9317 14.7558 39.7266 14.6972 39.7071 14.6581C39.6875 14.6288 40.0391 14.3359 40.5079 14.0136C42.9883 12.2948 45.4297 10.3222 46.9727 8.78899C49.4922 6.27922 50.1954 4.44328 49.0625 3.28117C47.7442 1.92375 43.877 2.61711 37.7442 5.30266C34.8926 6.54289 30.42 8.86711 27.6954 10.5175C27.2266 10.8105 26.8164 11.0351 26.8067 11.0155C26.7969 10.996 26.7286 10.7519 26.67 10.4687C26.3672 9.01359 26.7188 7.72453 27.9102 5.95695C28.5059 5.06828 28.7207 4.46281 28.7207 3.65227C28.7305 2.08 27.8711 0.869064 26.3282 0.263596C25.9375 0.117111 25.5469 0.0682831 24.5606 0.0487518C23.8672 0.0292206 23.1153 0.0389862 22.9004 0.0585175ZM25.8789 2.22649C26.5332 2.54875 26.709 2.85149 26.709 3.62297C26.709 4.25774 26.6895 4.30656 26.1524 5.08781C25.5176 6.01555 25.0977 6.90422 24.8438 7.82219C24.6094 8.66203 24.6094 10.4784 24.8438 11.2304C25.1368 12.1874 25.1563 12.1288 24.6387 12.4413C22.5391 13.7206 18.5938 16.7284 16.7774 18.4374L16.1231 19.0527L15.7227 18.9452C15.4981 18.8866 14.9512 18.8378 14.5118 18.8378C13.5645 18.8378 12.7246 19.0722 12.002 19.5409C10.8301 20.2929 9.15042 22.7148 7.43167 26.1425C6.80667 27.3925 6.72855 27.7343 6.99222 28.1152C7.29495 28.5448 7.65628 28.6132 10.2246 28.6718C13.6524 28.7597 15.7032 28.5253 16.9043 27.9296C17.9102 27.4218 18.7696 26.3964 19.1602 25.2441L19.3164 24.7558L21.211 24.1112C23.6524 23.2812 25.4883 22.5097 28.3106 21.1327C30.9278 19.8534 33.418 18.5058 35.4493 17.2558L36.8653 16.3866L37.793 16.4355C42.3438 16.6894 45.918 19.3456 47.2168 23.4472C47.6758 24.9023 47.793 25.8007 47.793 27.6855C47.793 29.5605 47.6758 30.4687 47.2071 32.2265C45.879 37.1679 42.334 41.8066 37.6954 44.6581C35.9473 45.7323 33.5352 46.7382 31.4258 47.2753C20.5371 50.039 9.53128 45.0976 4.58011 35.2441C2.31448 30.7226 1.59183 25.3027 2.59768 20.332C3.86722 14.0136 7.99808 8.33 13.7696 4.96086C17.041 3.0468 21.0645 1.92375 24.4141 1.99211C25.2539 2.00188 25.5176 2.04094 25.8789 2.22649ZM47.4317 4.57024L47.6465 4.6386L47.461 5.06828C46.9727 6.1425 44.795 8.33 42.2168 10.332C38.7793 12.998 34.0137 16.0058 29.4629 18.3886C28.4278 18.9355 28.4082 18.9355 28.3301 18.7206C27.9688 17.8027 27.8028 17.4413 27.4805 16.8456C27.0411 16.0351 26.4649 15.1562 25.9864 14.5702L25.6446 14.1405L25.8789 13.9648C26.0059 13.8671 27.0215 13.2421 28.125 12.5683C32.7247 9.77531 37.1485 7.54875 41.1426 6.01555C43.9942 4.9218 46.5918 4.3261 47.4317 4.57024ZM25.127 16.6894C25.586 17.3632 26.1329 18.457 26.4942 19.3945L26.6504 19.8046L25.4102 20.3612C23.0078 21.4452 19.6192 22.7148 19.3653 22.6171C19.2969 22.5878 19.2383 22.4902 19.2383 22.3925C19.2383 22.1288 18.711 21.0741 18.3985 20.6933C17.8125 20.0097 17.7832 20.1269 18.7793 19.2577C20.0391 18.1542 21.0645 17.3437 22.627 16.2011L23.9746 15.2245L24.3067 15.5956C24.4825 15.8007 24.8536 16.289 25.127 16.6894ZM15.7422 21.0253C16.25 21.2402 16.875 21.8359 17.168 22.4023C17.3926 22.8222 17.4317 23.0175 17.4219 23.6816C17.4219 24.6093 17.1582 25.2343 16.5137 25.8105C15.9473 26.3183 15.5567 26.455 14.1211 26.6112C12.7442 26.7675 9.6973 26.8066 9.49222 26.6698C9.26761 26.5331 11.4258 22.9003 12.4414 21.7089C13.2129 20.8105 14.5606 20.537 15.7422 21.0253Z" />
<path d="M16.2696 6.21086C13.4181 7.11906 12.5587 10.664 14.6778 12.7245C16.1915 14.1991 18.6231 14.1796 20.1173 12.6952C22.0216 10.7812 21.4454 7.57805 18.9942 6.42571C18.1934 6.05461 17.0313 5.96672 16.2696 6.21086ZM18.4571 8.33977C18.9259 8.6425 19.336 9.41399 19.336 9.96086C19.3263 11.0546 18.1446 12.0605 17.0997 11.8652C15.586 11.582 14.922 9.83391 15.8985 8.6718C16.4942 7.95891 17.6563 7.81242 18.4571 8.33977Z" />
<path d="M32.5293 22.1971C31.6016 22.7342 32.1387 24.2089 33.1836 23.9745C33.8965 23.8182 34.1895 22.91 33.6817 22.412C33.3887 22.1092 32.8516 22.0116 32.5293 22.1971Z" />
<path d="M40.6153 26.6016C39.5606 27.0118 38.75 27.7051 38.3203 28.5743C36.709 31.875 40.0782 35.3418 43.4375 33.8379C44.1211 33.5352 44.8829 32.793 45.254 32.0704C46.2305 30.1661 45.42 27.793 43.4668 26.8262C42.9102 26.5528 42.7247 26.5137 41.9043 26.4942C41.2891 26.4746 40.8496 26.5137 40.6153 26.6016ZM42.6661 28.6133C44.2774 29.4336 43.9747 31.8164 42.1973 32.2168C40.6836 32.5586 39.375 30.9571 40.0293 29.5411C40.4883 28.545 41.6993 28.1153 42.6661 28.6133Z"/>
<path d="M32.5683 27.3631C32.2754 27.5291 32.1582 27.7342 32.0312 28.2225C31.6601 29.7166 30.6738 30.8299 29.0332 31.6111C26.5722 32.7928 23.3691 32.6365 21.25 31.2498C20.8691 30.9959 20.4492 30.6736 20.3125 30.5174C19.7754 29.9315 19.0918 29.8436 18.6816 30.3025C18.2031 30.8299 18.3496 31.3377 19.2285 32.1483C20.8887 33.6912 23.291 34.4725 25.9179 34.3455C29.375 34.1697 32.2265 32.5291 33.4277 30.0389C34.0234 28.8084 34.1211 27.8807 33.7011 27.4998C33.457 27.285 32.8222 27.2068 32.5683 27.3631Z"/>
<path d="M11.3184 32.4607C10.2637 32.8709 9.45315 33.5642 9.02347 34.4334C7.41214 37.7342 10.7813 41.201 14.1407 39.6971C14.8242 39.3943 15.586 38.6521 15.9571 37.9295C16.9336 36.0252 16.1231 33.6521 14.1699 32.6853C13.6133 32.4119 13.4278 32.3728 12.6074 32.3533C11.9922 32.3338 11.5528 32.3728 11.3184 32.4607ZM13.3692 34.4724C14.9805 35.2928 14.6778 37.6756 12.9004 38.076C11.3867 38.4178 10.0782 36.8162 10.7325 35.4002C11.1914 34.4041 12.4024 33.9744 13.3692 34.4724Z"/>
<path d="M32.8028 36.367C31.7481 36.7771 30.9375 37.4705 30.5078 38.3396C28.8965 41.6404 32.2657 45.1072 35.625 43.6033C36.3086 43.3006 37.0704 42.5584 37.4415 41.8357C38.418 39.9314 37.6075 37.5584 35.6543 36.5916C35.0977 36.3181 34.9122 36.2791 34.0918 36.2596C33.4766 36.24 33.0371 36.2791 32.8028 36.367ZM34.8536 38.3787C36.4649 39.199 36.1622 41.5818 34.3848 41.9822C32.8711 42.324 31.5625 40.7225 32.2168 39.3064C32.6758 38.3103 33.8868 37.8807 34.8536 38.3787Z"/>
<path d="M21.084 38.3201C20.0293 38.7303 19.2188 39.4236 18.7891 40.2928C17.1778 43.5935 20.5469 47.0603 23.9063 45.5564C24.5899 45.2537 25.3516 44.5115 25.7227 43.7889C26.6992 41.8846 25.8887 39.5115 23.9356 38.5447C23.3789 38.2713 23.1934 38.2322 22.3731 38.2127C21.7578 38.1931 21.3184 38.2322 21.084 38.3201ZM23.1348 40.3318C24.7461 41.1521 24.4434 43.535 22.666 43.9353C21.1524 44.2771 19.8438 42.6756 20.4981 41.2596C20.9571 40.2635 22.168 39.8338 23.1348 40.3318Z"/>
</svg>
