<svg width="40" height="41" viewBox="0 0 40 41" fill="none" xmlns="http://www.w3.org/2000/svg">
<mask id="mask0_1687_55" style="mask-type:alpha" maskUnits="userSpaceOnUse" x="0" y="0" width="40" height="41">
<rect width="39.8116" height="41" fill="#C4C4C4"/>
</mask>
<g mask="url(#mask0_1687_55)">
<path d="M30.6961 2.43256L1.93437 23.5151C0.104333 24.8566 -0.246827 27.4996 1.15152 29.4073L16.3665 50.1642C17.7648 52.0719 20.391 52.5325 22.221 51.1911L50.9828 30.1085C52.8128 28.7671 53.164 26.1241 51.7657 24.2164L36.5507 3.45945C35.1523 1.55176 32.5262 1.09113 30.6961 2.43256ZM32.3867 4.73888C32.537 4.62871 32.7038 4.55641 32.8761 4.51736L27.8759 28.7454L3.26629 26.2216C3.35545 26.0691 3.47455 25.9317 3.62484 25.8215L32.3867 4.73888ZM49.2922 27.8021L20.5304 48.8847C19.9201 49.3321 19.0453 49.1787 18.5789 48.5424L4.37018 29.1583L28.9084 31.6743C29.2548 31.7094 29.5815 31.6137 29.8397 31.4245C30.0979 31.2352 30.2876 30.9525 30.3582 30.6116L35.3445 6.45391L49.5532 25.8381C50.0195 26.4744 49.9026 27.3547 49.2922 27.8021Z"/>
</g>
</svg>
